<mxfile host="app.diagrams.net" agent="Mozilla/5.0 (Windows NT 10.0; Win64; x64) AppleWebKit/537.36 (KHTML, like Gecko) Chrome/134.0.0.0 Safari/537.36" version="26.1.3">
  <diagram name="第 1 页" id="YE1NN4_8z4oJuWLOnsad">
    <mxGraphModel dx="954" dy="558" grid="1" gridSize="10" guides="1" tooltips="1" connect="1" arrows="1" fold="1" page="1" pageScale="1" pageWidth="827" pageHeight="1169" math="0" shadow="0">
      <root>
        <mxCell id="0" />
        <mxCell id="1" parent="0" />
        <mxCell id="48JCw_21CysS1-TrN_gO-3" value="" style="edgeStyle=orthogonalEdgeStyle;rounded=0;orthogonalLoop=1;jettySize=auto;html=1;" parent="1" source="48JCw_21CysS1-TrN_gO-1" target="48JCw_21CysS1-TrN_gO-2" edge="1">
          <mxGeometry relative="1" as="geometry" />
        </mxCell>
        <mxCell id="48JCw_21CysS1-TrN_gO-1" value="CdSimply" style="rounded=0;whiteSpace=wrap;html=1;" parent="1" vertex="1">
          <mxGeometry x="1050" y="390" width="120" height="60" as="geometry" />
        </mxCell>
        <mxCell id="48JCw_21CysS1-TrN_gO-5" value="" style="edgeStyle=orthogonalEdgeStyle;rounded=0;orthogonalLoop=1;jettySize=auto;html=1;" parent="1" source="48JCw_21CysS1-TrN_gO-9" target="48JCw_21CysS1-TrN_gO-4" edge="1">
          <mxGeometry relative="1" as="geometry" />
        </mxCell>
        <mxCell id="48JCw_21CysS1-TrN_gO-2" value="Lod_mergePlnInsteadSimplify" style="rounded=0;whiteSpace=wrap;html=1;" parent="1" vertex="1">
          <mxGeometry x="1250" y="390" width="180" height="60" as="geometry" />
        </mxCell>
        <mxCell id="48JCw_21CysS1-TrN_gO-13" value="" style="edgeStyle=orthogonalEdgeStyle;rounded=0;orthogonalLoop=1;jettySize=auto;html=1;" parent="1" source="48JCw_21CysS1-TrN_gO-4" target="48JCw_21CysS1-TrN_gO-12" edge="1">
          <mxGeometry relative="1" as="geometry" />
        </mxCell>
        <mxCell id="48JCw_21CysS1-TrN_gO-4" value="FindAllNeighboringFaces" style="rounded=0;whiteSpace=wrap;html=1;" parent="1" vertex="1">
          <mxGeometry x="1270" y="660" width="140" height="60" as="geometry" />
        </mxCell>
        <mxCell id="48JCw_21CysS1-TrN_gO-7" value="检查并且简化平面通过合并相邻的平面" style="text;html=1;align=center;verticalAlign=middle;resizable=0;points=[];autosize=1;strokeColor=none;fillColor=none;" parent="1" vertex="1">
          <mxGeometry x="1225" y="328" width="230" height="30" as="geometry" />
        </mxCell>
        <mxCell id="48JCw_21CysS1-TrN_gO-8" value="找他的相邻面,附着属性" style="text;html=1;align=center;verticalAlign=middle;whiteSpace=wrap;rounded=0;" parent="1" vertex="1">
          <mxGeometry x="1165" y="660" width="60" height="30" as="geometry" />
        </mxCell>
        <mxCell id="48JCw_21CysS1-TrN_gO-10" value="" style="edgeStyle=orthogonalEdgeStyle;rounded=0;orthogonalLoop=1;jettySize=auto;html=1;" parent="1" source="48JCw_21CysS1-TrN_gO-2" target="48JCw_21CysS1-TrN_gO-9" edge="1">
          <mxGeometry relative="1" as="geometry">
            <mxPoint x="1340" y="450" as="sourcePoint" />
            <mxPoint x="1350" y="610" as="targetPoint" />
          </mxGeometry>
        </mxCell>
        <mxCell id="48JCw_21CysS1-TrN_gO-9" value="FacesReGroupsBase1NbrFcs" style="rounded=0;whiteSpace=wrap;html=1;" parent="1" vertex="1">
          <mxGeometry x="1255" y="524.5" width="170" height="60" as="geometry" />
        </mxCell>
        <mxCell id="48JCw_21CysS1-TrN_gO-11" value="尝试对面进行分组" style="text;html=1;align=center;verticalAlign=middle;resizable=0;points=[];autosize=1;strokeColor=none;fillColor=none;" parent="1" vertex="1">
          <mxGeometry x="1120" y="528" width="120" height="30" as="geometry" />
        </mxCell>
        <mxCell id="48JCw_21CysS1-TrN_gO-16" value="" style="edgeStyle=orthogonalEdgeStyle;rounded=0;orthogonalLoop=1;jettySize=auto;html=1;" parent="1" source="48JCw_21CysS1-TrN_gO-12" target="48JCw_21CysS1-TrN_gO-15" edge="1">
          <mxGeometry relative="1" as="geometry" />
        </mxCell>
        <mxCell id="48JCw_21CysS1-TrN_gO-12" value="LocFindTanBndryEdgs" style="whiteSpace=wrap;html=1;rounded=0;" parent="1" vertex="1">
          <mxGeometry x="1280" y="800" width="120" height="60" as="geometry" />
        </mxCell>
        <mxCell id="48JCw_21CysS1-TrN_gO-14" value="如果之前的分组只有一个分组" style="text;html=1;align=center;verticalAlign=middle;resizable=0;points=[];autosize=1;strokeColor=none;fillColor=none;" parent="1" vertex="1">
          <mxGeometry x="1090" y="815" width="180" height="30" as="geometry" />
        </mxCell>
        <mxCell id="48JCw_21CysS1-TrN_gO-19" value="" style="edgeStyle=orthogonalEdgeStyle;rounded=0;orthogonalLoop=1;jettySize=auto;html=1;" parent="1" source="48JCw_21CysS1-TrN_gO-15" target="48JCw_21CysS1-TrN_gO-18" edge="1">
          <mxGeometry relative="1" as="geometry" />
        </mxCell>
        <mxCell id="48JCw_21CysS1-TrN_gO-15" value="LocCollectNBndryEdgeCnvx" style="whiteSpace=wrap;html=1;rounded=0;" parent="1" vertex="1">
          <mxGeometry x="1241" y="960" width="210" height="60" as="geometry" />
        </mxCell>
        <mxCell id="48JCw_21CysS1-TrN_gO-17" value="收集凸的边界边" style="text;html=1;align=center;verticalAlign=middle;resizable=0;points=[];autosize=1;strokeColor=none;fillColor=none;" parent="1" vertex="1">
          <mxGeometry x="1085" y="968" width="110" height="30" as="geometry" />
        </mxCell>
        <mxCell id="48JCw_21CysS1-TrN_gO-22" value="" style="edgeStyle=orthogonalEdgeStyle;rounded=0;orthogonalLoop=1;jettySize=auto;html=1;" parent="1" source="48JCw_21CysS1-TrN_gO-18" target="48JCw_21CysS1-TrN_gO-21" edge="1">
          <mxGeometry relative="1" as="geometry" />
        </mxCell>
        <mxCell id="48JCw_21CysS1-TrN_gO-18" value="DEGetBndry" style="whiteSpace=wrap;html=1;rounded=0;" parent="1" vertex="1">
          <mxGeometry x="1241" y="1100" width="210" height="60" as="geometry" />
        </mxCell>
        <mxCell id="48JCw_21CysS1-TrN_gO-20" value="获取边界边对于连接的面对,&lt;div&gt;同时把这些面删掉&lt;/div&gt;" style="text;html=1;align=center;verticalAlign=middle;resizable=0;points=[];autosize=1;strokeColor=none;fillColor=none;" parent="1" vertex="1">
          <mxGeometry x="1055" y="1113" width="170" height="40" as="geometry" />
        </mxCell>
        <mxCell id="48JCw_21CysS1-TrN_gO-25" value="" style="edgeStyle=orthogonalEdgeStyle;rounded=0;orthogonalLoop=1;jettySize=auto;html=1;" parent="1" source="48JCw_21CysS1-TrN_gO-21" target="48JCw_21CysS1-TrN_gO-24" edge="1">
          <mxGeometry relative="1" as="geometry" />
        </mxCell>
        <mxCell id="48JCw_21CysS1-TrN_gO-21" value="VxSimplifyII" style="whiteSpace=wrap;html=1;rounded=0;" parent="1" vertex="1">
          <mxGeometry x="1241" y="1240" width="210" height="60" as="geometry" />
        </mxCell>
        <mxCell id="48JCw_21CysS1-TrN_gO-23" value="基本的简化命令,一系列的调用&lt;div&gt;完成简化&lt;/div&gt;" style="text;html=1;align=center;verticalAlign=middle;resizable=0;points=[];autosize=1;strokeColor=none;fillColor=none;" parent="1" vertex="1">
          <mxGeometry x="1060" y="1263" width="180" height="40" as="geometry" />
        </mxCell>
        <mxCell id="48JCw_21CysS1-TrN_gO-27" value="" style="edgeStyle=orthogonalEdgeStyle;rounded=0;orthogonalLoop=1;jettySize=auto;html=1;" parent="1" source="48JCw_21CysS1-TrN_gO-24" target="48JCw_21CysS1-TrN_gO-26" edge="1">
          <mxGeometry relative="1" as="geometry" />
        </mxCell>
        <mxCell id="48JCw_21CysS1-TrN_gO-24" value="DE增加各种函数" style="whiteSpace=wrap;html=1;rounded=0;" parent="1" vertex="1">
          <mxGeometry x="1576" y="1240" width="120" height="60" as="geometry" />
        </mxCell>
        <mxCell id="48JCw_21CysS1-TrN_gO-30" value="" style="edgeStyle=orthogonalEdgeStyle;rounded=0;orthogonalLoop=1;jettySize=auto;html=1;" parent="1" source="48JCw_21CysS1-TrN_gO-26" target="48JCw_21CysS1-TrN_gO-29" edge="1">
          <mxGeometry relative="1" as="geometry" />
        </mxCell>
        <mxCell id="48JCw_21CysS1-TrN_gO-26" value="TopSolveEngine" style="whiteSpace=wrap;html=1;rounded=0;" parent="1" vertex="1">
          <mxGeometry x="1576" y="1380" width="120" height="60" as="geometry" />
        </mxCell>
        <mxCell id="48JCw_21CysS1-TrN_gO-28" value="DE的各种函数&lt;div&gt;DEMerge&lt;/div&gt;&lt;div&gt;DEExtendDistance&lt;/div&gt;&lt;div&gt;DEExtendEdgs&lt;/div&gt;&lt;div&gt;DEOrigEntsKeepSet&lt;/div&gt;&lt;div&gt;DEQuiltExtend&lt;/div&gt;&lt;div&gt;DEIsectGraph&lt;/div&gt;&lt;div&gt;DEIsectEmbed&lt;/div&gt;&lt;div&gt;DEMarkOrig&lt;/div&gt;&lt;div&gt;DECheck&lt;/div&gt;&lt;div&gt;DECleanUp&lt;/div&gt;&lt;div&gt;DEFinishSHls&lt;/div&gt;&lt;div&gt;&lt;br&gt;&lt;/div&gt;" style="text;html=1;align=center;verticalAlign=middle;whiteSpace=wrap;rounded=0;" parent="1" vertex="1">
          <mxGeometry x="1750" y="1150" width="190" height="240" as="geometry" />
        </mxCell>
        <mxCell id="48JCw_21CysS1-TrN_gO-29" value="DECall" style="whiteSpace=wrap;html=1;rounded=0;" parent="1" vertex="1">
          <mxGeometry x="1576" y="1520" width="120" height="60" as="geometry" />
        </mxCell>
        <mxCell id="T1iFM9B9spnHlJ45qVsO-1" value="关键的延申，求交闭合&lt;div&gt;QuiltExtendFaces&lt;/div&gt;&lt;div&gt;自然延申曲面：VxSrfExtensionTypesNatural&lt;/div&gt;" style="text;html=1;align=center;verticalAlign=middle;whiteSpace=wrap;rounded=0;" parent="1" vertex="1">
          <mxGeometry x="1815" y="1400" width="245" height="60" as="geometry" />
        </mxCell>
        <mxCell id="T1iFM9B9spnHlJ45qVsO-2" value="学习算法的一点小技巧&lt;div&gt;抓住主线，看遍文档，记录主流程。&lt;/div&gt;&lt;div&gt;做一个简单的案例，自己去猜测这个算法是什么样子的，然后去看&lt;/div&gt;&lt;div&gt;是否符合自己的猜测，有什么洋的遗漏，然后把整个穿起来&lt;/div&gt;" style="text;html=1;align=center;verticalAlign=middle;resizable=0;points=[];autosize=1;strokeColor=none;fillColor=none;" parent="1" vertex="1">
          <mxGeometry x="565" y="338" width="370" height="70" as="geometry" />
        </mxCell>
        <mxCell id="sCZ3I9kJR1AS0J6Xopey-4" value="" style="edgeStyle=orthogonalEdgeStyle;rounded=0;orthogonalLoop=1;jettySize=auto;html=1;" parent="1" source="sCZ3I9kJR1AS0J6Xopey-2" target="sCZ3I9kJR1AS0J6Xopey-3" edge="1">
          <mxGeometry relative="1" as="geometry" />
        </mxCell>
        <mxCell id="sCZ3I9kJR1AS0J6Xopey-2" value="&lt;br&gt;&lt;span style=&quot;color: rgb(0, 0, 0); font-family: Helvetica; font-size: 12px; font-style: normal; font-variant-ligatures: normal; font-variant-caps: normal; font-weight: 400; letter-spacing: normal; orphans: 2; text-align: center; text-indent: 0px; text-transform: none; widows: 2; word-spacing: 0px; -webkit-text-stroke-width: 0px; white-space: normal; background-color: rgb(251, 251, 251); text-decoration-thickness: initial; text-decoration-style: initial; text-decoration-color: initial; float: none; display: inline !important;&quot;&gt;VxSrfExtensionTypesNatural&lt;/span&gt;&lt;div&gt;&lt;br/&gt;&lt;/div&gt;" style="rounded=0;whiteSpace=wrap;html=1;" parent="1" vertex="1">
          <mxGeometry x="1815" y="1530" width="195" height="60" as="geometry" />
        </mxCell>
        <mxCell id="sCZ3I9kJR1AS0J6Xopey-6" value="" style="edgeStyle=orthogonalEdgeStyle;rounded=0;orthogonalLoop=1;jettySize=auto;html=1;" parent="1" source="sCZ3I9kJR1AS0J6Xopey-3" target="sCZ3I9kJR1AS0J6Xopey-5" edge="1">
          <mxGeometry relative="1" as="geometry" />
        </mxCell>
        <mxCell id="sCZ3I9kJR1AS0J6Xopey-3" value="ExtendUnderlyingSurfaceOnUv" style="whiteSpace=wrap;html=1;rounded=0;" parent="1" vertex="1">
          <mxGeometry x="2127.5" y="1530" width="182.5" height="60" as="geometry" />
        </mxCell>
        <mxCell id="sCZ3I9kJR1AS0J6Xopey-5" value="VxSrfExtension" style="whiteSpace=wrap;html=1;rounded=0;" parent="1" vertex="1">
          <mxGeometry x="2421.25" y="1530" width="120" height="60" as="geometry" />
        </mxCell>
      </root>
    </mxGraphModel>
  </diagram>
</mxfile>
